<?xml version="1.0" standalone="no"?><!DOCTYPE svg PUBLIC "-//W3C//DTD SVG 1.1//EN" "http://www.w3.org/Graphics/SVG/1.1/DTD/svg11.dtd"><svg t="1626509687715" class="icon" viewBox="0 0 1024 1024" version="1.1" xmlns="http://www.w3.org/2000/svg" p-id="2074" width="16" height="16" xmlns:xlink="http://www.w3.org/1999/xlink"><defs><style type="text/css"></style></defs><path d="M512 0C430.3872 123.8016 153.6 458.4448 153.6 656.384 153.6 859.4432 314.0608 1024 512 1024S870.4 859.4432 870.4 656.384C870.4 458.4448 593.6128 123.8016 512 0zM224.3584 656.384c0-22.4256 17.2032-40.448 38.4-40.448s38.4 18.0224 38.4 40.448c0 59.392 23.4496 113.0496 61.3376 151.8592 38.0928 39.1168 90.9312 63.2832 149.504 63.2832 21.1968 0 38.4 18.1248 38.4 40.448A39.424 39.424 0 0 1 512 952.32a282.624 282.624 0 0 1-202.9568-86.4256A299.52 299.52 0 0 1 224.3584 656.384z" p-id="2075" fill="#d81e06"></path></svg>